PathFileType	4	(X/Y/Z)	C:/Users/beibeiliu/ov580/test_trc/capture2\sequence.35_training_dense_right.trc
DataRate	CameraRate	NumFrames	NumMarkers	Units	OrigDataRate	OrigDataStartFrame	OrigNumFrames
120	120	16	19	mm	120	1	272
Frame#	Time	ThumbCMC			ThumbMCP			ThumbIP			ThumbTip			IndexMCP			IndexPIP			IndexTip			MiddleMCP			MiddlePIP			MiddleTip			RingMCP			RingPIP			RingTip			PinkyMCP			PinkyPIP			PinkyTip			BackHand1			BackHand2			BackHand3	
		X0	Y0	Z0	X1	Y1	Z1	X2	Y2	Z2	X3	Y3	Z3	X4	Y4	Z4	X5	Y5	Z5	X6	Y6	Z6	X7	Y7	Z7	X8	Y8	Z8	X9	Y9	Z9	X10	Y10	Z10	X11	Y11	Z11	X12	Y12	Z12	X13	Y13	Z13	X14	Y14	Z14	X15	Y15	Z15	X16	Y16	Z16	X17	Y17	Z17	X18	Y18	Z18	
0	0	143.022	-23.2558	79.3258	121.191	-39.9722	60.8878	111.086	-50.7036	37.1733	104.976	-59.1946	17.5509	163.933	-9.35243	8.79397	161.889	-12.8249	-19.5027	160.395	-11.5648	-40.0096	193.967	-12.7266	6.75126	195.336	-16.6003	-19.3071	204.164	-21.7157	-46.7092	210.612	-22.0999	12.8312	218.145	-26.1797	-10.6337	228.282	-28.6182	-34.9108	227.241	-32.9526	28.7989	240.339	-38.4394	12.3162	256.385	-37.9989	-1.58208	203.604	-10.3039	62.2678	198.994	-5.31939	92.9012	171.38	-1.30866	73.3537	
1	0.00833333	140.681	-23.2193	74.1572	124.883	-39.4167	61.6477	112.601	-49.9252	35.2076	102.371	-58.638	19.1268	163.623	-9.35846	8.77298	159.704	-10.2015	-19.0471	164.213	-11.4283	-43.7261	189.823	-11.7168	7.00528	195.144	-16.1266	-23.5002	203.83	-20.5888	-48.9457	208.434	-20.5834	10.1844	221.235	-26.15	-6.88373	226.372	-27.5469	-35.093	225.811	-33.0825	29.0858	240.51	-38.4112	11.2437	253.825	-37.7742	-6.87716	202.712	-10.6186	62.2655	198.598	-6.4254	92.4529	170.857	-0.087237	70.0469	
2	0.0166667	139.381	-22.2384	79.0244	125.305	-39.5124	58.8088	111.023	-49.001	35.6306	105.843	-57.3361	16.5779	164.311	-8.69705	8.16101	159.177	-9.48869	-15.5845	165.011	-10.6056	-40.8152	191.002	-11.5781	1.72249	194.816	-15.7364	-23.3574	204.289	-21.0477	-50.513	210.987	-20.9983	11.9421	217.268	-25.1487	-8.06873	226.529	-28.3562	-34.2051	226.653	-31.9407	27.4744	239.013	-39.3929	13.0744	252.4	-37.7062	-3.34264	204.006	-10.5933	61.0729	202.338	-6.33217	89.9339	173.031	0.233038	71.6004	
3	0.025	138.633	-21.8969	75.7253	122.656	-38.4113	61.0661	111.743	-48.6683	33.9945	104.144	-58.1694	15.292	162.319	-7.50354	9.82158	159.683	-9.0715	-20.183	166.375	-10.3465	-42.8652	194.51	-11.5693	4.3477	198.711	-16.405	-23.9497	205.739	-22.1636	-48.528	209.965	-19.0146	9.79566	219.481	-24.1584	-12.1525	225.053	-27.9165	-35.6515	226.038	-31.6999	28.237	236.809	-38.5184	13.8826	255.208	-37.162	-6.26697	201.727	-7.98329	60.3472	200.326	-7.78402	92.2398	169.881	0.142887	67.4341	
4	0.0333333	137.799	-20.8532	73.9068	123.984	-38.2249	59.5743	111.37	-47.9695	35.0181	105.643	-58.2859	14.074	164.535	-6.55684	5.90535	159.977	-7.5359	-17.3006	166.999	-10.483	-42.26	189.724	-9.92254	6.67747	196.752	-16.113	-24.3941	202.643	-20.5527	-47.8479	208.458	-19.7845	14.4223	216.967	-23.6165	-13.5036	225.854	-26.7739	-37.3301	226.41	-32.7716	30.9618	239.301	-37.813	9.73848	255.006	-38.1048	-6.76035	201.955	-8.86886	63.5543	203.549	-6.41893	92.4439	174.816	-0.481146	71.8425	
5	0.0416667	139.027	-21.5173	72.6818	126.38	-38.3817	58.4447	114.073	-47.6637	38.415	107.249	-56.8047	16.5708	162.228	-6.78244	7.14099	164.947	-8.75072	-19.833	162.051	-8.93446	-45.6822	192.778	-10.4999	6.80552	199.215	-15.15	-20.7729	202.122	-20.5568	-46.7317	208.852	-19.4005	10.6388	219.913	-23.9729	-9.86282	223.173	-27.7994	-34.1863	229.235	-33.7608	27.8966	236.308	-38.1996	12.0435	257.243	-37.5327	-6.71051	206.926	-11.1729	61.3885	201.617	-7.87225	89.1907	175.691	-0.806168	67.8251	
6	0.05	141.277	-22.0532	73.7477	122.658	-36.9737	59.2356	109.607	-46.7755	34.8976	103.777	-56.3936	16.1864	163.72	-6.29902	7.03289	160.02	-6.95748	-20.219	167.477	-9.52996	-44.2067	190.391	-8.86878	5.22507	196.635	-14.3308	-21.3364	202.625	-20.8162	-48.7212	212.878	-19.6694	11.6418	220.836	-24.5019	-9.93433	226.497	-28.4336	-33.6274	225.688	-32.9457	29.3637	240.477	-40.2456	11.3233	256.934	-38.6679	-7.61066	203.307	-9.04774	63.7381	199.01	-7.6861	91.2607	173.342	-0.744017	68.4229	
7	0.0583333	140.056	-21.6733	78.4174	123.364	-36.888	59.1337	111.219	-46.1212	36.0654	104.764	-55.0691	13.9555	162.29	-4.74085	7.37279	163.427	-7.84067	-21.2388	165.468	-8.43529	-46.3194	193.019	-10.1955	4.38438	197.368	-14.936	-22.315	206.261	-22.1284	-51.6279	213.706	-21.1291	11.5178	222.156	-25.7102	-10.67	223.864	-28.17	-33.9143	225.89	-33.0106	31.1656	236.609	-39.0912	13.5444	256.427	-38.2172	-4.32071	204.028	-8.35009	59.9756	200.07	-7.59483	93.8095	171.38	0.46481	71.7883	
8	0.0666667	143.236	-22.0999	73.8035	123.444	-36.6968	59.7241	113.255	-45.1962	37.9478	105.104	-54.4573	16.3881	164.825	-5.53245	6.51204	162.657	-6.04013	-19.1182	167.122	-7.73741	-41.0169	194.143	-9.9991	6.28845	199.185	-15.7859	-23.8686	203.097	-21.058	-45.8365	210.215	-19.9314	15.1288	218.584	-25.4501	-8.22381	226.232	-29.6604	-36.1921	227.914	-33.9959	30.3136	236.958	-40.1641	10.7862	255.675	-42.3683	-2.07841	208.4	-10.2252	62.6494	204.057	-9.78739	91.6045	175.232	-1.506	73.4745	
9	0.075	140.466	-20.4022	78.4246	123.024	-37.0523	59.011	111.734	-44.5069	37.5359	105.015	-53.3202	13.9912	167.207	-5.0917	6.99786	161.119	-6.06811	-15.41	166.098	-8.1011	-43.6758	191.913	-8.38473	3.5819	198.879	-15.0506	-23.3231	202.633	-19.5987	-46.6315	211.321	-20.5931	15.4827	217.672	-25.5198	-8.15857	224.245	-30.0855	-34.5345	229.844	-35.4797	31.3703	238.227	-40.908	12.255	253.009	-40.6127	-5.22069	202.64	-12.0341	64.6158	203.779	-11.2628	90.8209	177.459	-0.442232	74.7403	
10	0.0833333	143.197	-20.7908	75.0886	121.206	-35.9409	56.4377	108.955	-45.3617	35.4574	106.068	-54.3119	12.5638	165.11	-4.41992	10.7682	161.445	-5.43518	-19.5944	169.227	-7.50404	-41.2883	194.266	-10.0062	4.99072	201.329	-14.4325	-19.0271	205.258	-20.7811	-46.4123	213.767	-21.4017	12.3177	219.71	-26	-8.58531	225.256	-30.8715	-33.9944	230.127	-37.0877	31.439	237.936	-41.8975	12.3553	255.431	-42.488	-7.53552	202.893	-11.9807	66.3709	202.231	-9.70951	94.6844	175.866	-2.7637	74.7733	
11	0.0916667	141.312	-21.5629	79.0958	126.6	-36.5861	58.3375	110.98	-45.8966	32.0003	104.455	-54.6298	10.6561	163.746	-4.3804	8.13048	164.241	-5.42309	-19.0144	167.254	-7.72912	-44.3584	191.49	-9.2378	7.7302	200.557	-13.8865	-20.9275	203.199	-19.0972	-47.6627	213.331	-20.9069	13.0618	221.061	-27.0096	-8.03215	225.257	-31.8456	-36.0182	227.786	-34.9909	26.752	240.884	-42.6241	10.5316	256.559	-45.3317	-5.24782	205.998	-12.1903	61.6331	201.589	-10.565	92.9057	172.645	-1.73004	70.0114	
12	0.1	138.901	-20.5817	77.6108	125.244	-36.4416	57.7791	112.086	-45.1096	37.001	105.202	-52.8759	14.7141	163.63	-2.76027	5.98247	165.029	-5.54078	-18.7821	164.915	-6.69072	-40.2123	192.519	-8.09837	2.98665	202.519	-15.5645	-22.7168	206.193	-20.9597	-47.1757	212.496	-20.7271	11.7393	223.236	-27.7181	-10.7091	224.758	-30.4672	-35.6368	230.161	-35.5151	28.6748	238.691	-42.4598	11.4852	254.099	-45.3483	-6.17525	204.401	-9.39305	62.867	200.995	-10.8619	92.1151	172.856	0.611491	73.6944	
13	0.108333	142.991	-20.6677	75.0743	123.985	-36.1176	57.3263	113.381	-43.4782	35.0925	104.541	-51.7346	16.4382	167.356	-4.52926	9.02196	166.762	-5.16749	-18.224	167.478	-6.32512	-45.4653	196.411	-9.32159	8.64812	201.825	-13.8074	-18.4754	207.814	-20.4964	-48.9737	215.383	-21.6198	11.9723	217.507	-25.8239	-9.10984	226.371	-31.0479	-31.0394	229.782	-36.2187	32.9818	240.575	-44.6235	11.8899	251.822	-45.4315	-3.32707	203.253	-10.0428	66.1344	201.373	-9.73739	91.4271	172.183	1.43579	73.8205	
14	0.116667	141.151	-19.3354	75.0102	120.826	-33.924	59.463	111.807	-41.663	35.516	103.203	-49.8105	11.0808	165.422	-1.91708	5.41909	166.859	-5.15618	-20.4059	166.607	-4.95609	-42.4702	192.58	-8.17342	5.868	202.172	-13.3779	-17.4762	206.805	-18.593	-47.7677	215.652	-21.3351	13.8725	221.7	-25.8562	-11.4817	226.655	-30.2813	-35.8758	228.344	-35.9969	32.1284	241.342	-44.2174	16.909	255.886	-46.3989	-4.67361	206.86	-10.7583	65.2156	199.637	-7.80931	93.1803	173.611	0.0904612	70.1932	
15	0.125	139.525	-16.676	74.2305	123.203	-32.8106	58.2968	110.205	-40.0908	36.251	103.779	-47.9555	15.3375	164.76	-0.958696	6.23335	163.821	-3.55839	-20.5516	165.62	-2.78271	-42.7346	194.389	-7.68378	3.89718	198.932	-11.8261	-22.3917	205.118	-15.8964	-46.4412	211.591	-18.6102	11.7382	223.742	-25.0799	-6.20604	229.288	-29.5851	-33.3833	229.452	-34.7947	31.8273	240.658	-43.683	16.1029	255.245	-45.8097	-3.11916	208.185	-8.38449	66.3594	203.933	-6.51657	91.6078	173.542	1.45117	73.4939	
